<?xml version="1.0" encoding="UTF-8"?>
<svg id="Layer_1" xmlns="http://www.w3.org/2000/svg" version="1.1" xmlns:xlink="http://www.w3.org/1999/xlink" viewBox="0 0 1077.2 1080">
  <!-- Generator: Adobe Illustrator 29.6.0, SVG Export Plug-In . SVG Version: 2.1.1 Build 207)  -->
  <defs>
    <style>
      .st0 {
        fill: url(#radial-gradient);
        isolation: isolate;
        opacity: .5;
      }
    </style>
    <radialGradient id="radial-gradient" cx="538.85" cy="540.05" fx="538.85" fy="540.05" r="539.15" gradientTransform="translate(0 1080) scale(1 -1)" gradientUnits="userSpaceOnUse">
      <stop offset="0" stop-color="#efabc0"/>
      <stop offset=".33" stop-color="#efabc0" stop-opacity=".67"/>
      <stop offset=".71" stop-color="#fbfad3" stop-opacity=".29"/>
      <stop offset="1" stop-color="#efabc0" stop-opacity="0"/>
    </radialGradient>
  </defs>
  <path class="st0" d="M543.3,541.1l531.6,73.6c-1.2,8.5-2.6,16.9-4.1,25.3v.1c-.1.3-.1.5-.2.8v.1c0,.1-.1.3-.1.4v.2c0,.2-.1.4-.1.7,0,.1,0,.2-.1.3,0,.1,0,.2-.1.4,0,.2-.1.4-.1.6,0,.1,0,.2-.1.3,0,.2-.1.3-.1.5,0,.1,0,.2-.1.3,0,.2-.1.3-.1.5,0,.1,0,.2-.1.3,0,.2-.1.4-.1.6v.2c0,.2-.1.4-.1.6v.1c0,.2-.1.5-.1.7v.2c0,.2-.1.4-.1.7v.2c0,.2-.1.4-.1.7v.1c-.1.3-.1.5-.2.8v.1c-3.9,18.6-8.7,36.9-14.5,54.8h0c-.2.5-.3,1-.5,1.5v.1c-.1.2-.2.5-.2.7v.1c-.2.5-.3,1-.5,1.4v.1c-.1.2-.1.5-.2.7v.1c-.1.2-.1.4-.2.6v.1c-.1.2-.1.4-.2.6,0,.1-.1.2-.1.2-.1.2-.1.4-.2.6,0,.1-.1.2-.1.3s-.1.3-.1.4-.1.2-.1.3c-.1.2-.1.3-.2.5,0,.1-.1.2-.1.3s-.1.2-.1.3c-.1.2-.1.4-.2.5,0,.1-.1.2-.1.3-.1.3-.2.5-.3.8h0c0,.1-.1.3-.1.4,0,0,0,.1-.1.2-.1.3-.2.5-.3.8v.1c-2.6,7.6-5.4,15.1-8.4,22.5l-498.8-198.7ZM680.2,1061.6h.1c.5-.1.9-.2,1.4-.4h.2c.2-.1.5-.1.7-.2.1,0,.2,0,.3-.1.1,0,.3-.1.4-.1.2-.1.3-.1.5-.1.1,0,.2-.1.3-.1s.2-.1.4-.1c.1,0,.2-.1.4-.1s.3-.1.5-.1c.1,0,.2,0,.3-.1.2-.1.4-.1.6-.2h.2c.2-.1.4-.1.6-.2h.2c.2-.1.4-.1.7-.2q.1,0,.2-.1c.2-.1.5-.1.7-.2h0c.3-.1.5-.1.7-.2h.1c.2-.1.5-.1.7-.2h0c.5-.2,1-.3,1.6-.5h0c23.4-6.8,46.2-15.2,68.1-25.1h0c.2-.1.5-.2.7-.3h.1c.5-.2.9-.4,1.4-.6,0,0,.1,0,.1-.1.2-.1.4-.2.7-.3,0,0,.1,0,.1-.1.2-.1.4-.2.6-.3h.1c.2-.1.4-.2.6-.3.1,0,.1-.1.2-.1.2-.1.4-.2.6-.3.1,0,.1-.1.2-.1.2-.1.3-.1.5-.2.1,0,.1-.1.2-.1.2-.1.4-.2.6-.3.1,0,.2-.1.3-.1.1-.1.3-.1.4-.2.1-.1.3-.1.4-.2.1-.1.2-.1.3-.2s.2-.1.3-.2c.2-.1.3-.2.5-.2.1-.1.2-.1.4-.2.1,0,.2-.1.2-.1.2-.1.4-.2.6-.3,0,0,.1-.1.2-.1.1-.1.3-.1.4-.2h0c.3-.1.6-.3.8-.4h.1c4.2-2,8.4-4.1,12.6-6.2l-243-478.1,121,522.6c6-1.4,12-2.9,17.9-4.5ZM540.8,540l1.1-.7.7-.2,534.6-54c-.4-4.1-.9-8.1-1.4-12.1h0c0-.3-.1-.5-.1-.8v-.1c0-.2,0-.4-.1-.6v-.3c0-.2,0-.4-.1-.6,0-.2,0-.3-.1-.5v-.2c-.1-.7-.2-1.4-.3-2.1-5-37.8-14-74.4-26.5-109.3l-505.5,180.4-.7.1,448.3-296.4c-.2-.4-.5-.7-.7-1.1h0c-.7-1.1-1.5-2.2-2.3-3.4h0c-23.3-34.5-50.5-66.2-81-94.4l-366.1,395.5.6-2.4-.9,1.6L553.3.1C551.9.1,550.5,0,549.2,0h-24.8C523.8,0,523.3,0,522.7.1h0c-14.5.5-28.7,1.5-42.9,3.1h0c-.3,0-.5.1-.8.1h-.1c-.2,0-.5.1-.7.1h-.1c-.2,0-.5.1-.8.1h-.2c-.2,0-.4,0-.6.1h-.2c-.2,0-.4.1-.7.1h-.3c-.2,0-.3,0-.4.1-.2,0-.3,0-.5.1-.1,0-.3,0-.4.1-.1,0-.3,0-.4.1h-.2c-.3,0-.6.1-.9.1h-.1c-.2,0-.4,0-.5.1h0c-1.3.2-2.6.3-3.9.5-1.5.2-3,.4-4.5.6h-.1c-.3,0-.5.1-.8.1h-.2c-.2,0-.4.1-.6.1h-.3c-.2,0-.4.1-.6.1-.1,0-.2,0-.4.1-.2,0-.3,0-.5.1-.1,0-.3,0-.4.1-.1,0-.3,0-.4.1-.2,0-.3,0-.5.1-.1,0-.2,0-.4.1-.2,0-.3.1-.5.1h-.3c-.2,0-.4.1-.6.1h-.1c-10.8,1.7-21.6,3.7-32.2,6h-.1c-.2,0-.5.1-.7.1h-.2c-.2,0-.4.1-.6.1-.1,0-.2,0-.3.1-.2,0-.4.1-.6.1-.1,0-.2,0-.3.1-.2,0-.3.1-.5.1-.1,0-.3.1-.4.1s-.3.1-.4.1c-.2,0-.3.1-.5.1-.1,0-.2.1-.4.1s-.4.1-.6.1c-.1,0-.2,0-.2.1-.3.1-.5.1-.8.2h-.1c-2.3.5-4.6,1.1-7,1.7l127.5,521.1L289.9,61.3c-1.1.6-2.2,1.2-3.3,1.8,0,0-.1,0-.1.1-.1.1-.3.1-.4.2-.1,0-.2.1-.3.1-.2.1-.4.2-.5.3s-.2.1-.4.2c-.1,0-.2.1-.3.1-.2.1-.4.2-.6.3h0c-.2.1-.4.2-.6.3,0,0-.1,0-.1.1-11.2,6.1-22.2,12.5-33,19.4h0c-.2.1-.4.3-.6.4-.1,0-.1.1-.2.1-.1.1-.3.2-.4.3-.1.1-.2.1-.3.2s-.3.2-.4.2c-.1.1-.2.1-.3.2s-.2.1-.3.2-.2.1-.3.2-.2.1-.3.2-.2.2-.4.2c-.1.1-.2.1-.3.2s-.3.2-.4.3c-.1,0-.1.1-.2.1-.2.1-.3.2-.5.3l-.1.1c-1.2.8-2.4,1.6-3.6,2.4h0c-.2.1-.4.3-.6.4h0c-.2.1-.4.3-.6.4h0c-.2.1-.4.3-.6.4h0c-6.8,4.5-13.4,9.2-20,14h0c-2.2,1.6-4.3,3.2-6.5,4.9h0c-.2.1-.4.3-.6.4h0c-10.2,7.8-20.1,15.9-29.7,24.4l356.1,403.9.1.5-1.4-.2L96.7,231.5c-24.6,35.3-45.1,73.7-60.8,114.5l501,192.8L4.3,471.8v.3c0,.2,0,.4-.1.5v.4c0,.1,0,.3-.1.4v.4c0,.1,0,.3-.1.4,0,.2,0,.4-.1.5v.3c0,.3-.1.5-.1.8v.2c0,.2,0,.3-.1.5h0c0,.3-.1.7-.1,1h0c-1.3,11.5-2.3,23.2-2.9,34.9h0c0,.4,0,.7-.1,1.1h0c0,.5,0,1-.1,1.5v1.1h0v28.1h0v5.3h0v.8h0c.3,16.8,1.4,33.4,3.2,49.8h0c0,.3.1.5.1.8h0v.4l533.3-60.3L33.5,727.7c12.1,32.6,27.3,63.8,45.2,93.1l458.7-279.8,1.8-.2-.1.4-361,399.6c.8.7,1.6,1.4,2.3,2.1h0c.2.2.4.3.5.5h0c.2.1.3.3.5.4l.1.1c.1.1.3.3.4.4q.1.1.2.1c.1.1.3.2.4.4q.1.1.2.2c.1.1.3.2.4.4q.1.1.2.2c.1.1.3.2.4.3q.1.1.2.2c.1.1.2.2.4.3.1.1.2.1.2.2.1.1.2.2.4.3.1.1.2.1.3.2.1.1.2.2.3.3s.2.1.3.2c.1.1.2.2.3.3s.2.2.3.2c.1.1.2.2.3.3s.2.1.3.2c.1.1.2.2.3.3s.2.2.3.3.2.2.3.3.2.2.3.3.2.2.3.3.2.2.3.3.2.2.3.3.2.2.3.3.2.2.3.2c.1.1.2.2.3.3s.2.2.3.2c.1.1.2.2.3.3s.2.2.3.2c.1.1.2.2.3.3s.2.2.3.3.2.2.3.3.2.2.3.2c.1.1.2.2.3.3s.2.1.3.2c.1.1.2.2.3.3s.2.2.3.2c.1.1.2.2.3.3s.2.2.3.2c.1.1.2.2.3.3s.2.2.3.2c.1.1.2.2.3.3s.2.2.3.3.2.2.3.2c.1.1.2.2.3.3s.2.2.3.2c.1.1.2.2.3.3s.2.2.3.3.2.2.3.2c.1.1.2.2.3.3s.2.2.3.2c.1.1.2.2.3.3s.2.2.3.2c.1.1.2.2.3.3s.2.2.3.3.2.2.3.2c.1.1.2.2.3.3s.2.2.3.2c.1.1.2.2.3.3s.2.1.3.2c.1.1.2.2.4.3q.1.1.2.2c.3.3.7.5,1,.8h.1c.2.2.4.3.6.5h.1c.2.1.3.3.5.4l.1.1c.2.1.3.3.5.4,0,0,.1,0,.1.1.1.1.3.2.4.3q.1.1.2.2c.1.1.3.2.4.4.1,0,.1.1.2.1.1.1.3.2.4.3q.1.1.2.2c.2.1.3.2.5.4.1,0,.1.1.2.1.1.1.3.2.4.3q.1.1.2.2c.1.1.3.2.4.3q.1.1.2.2c.1.1.3.2.4.3.1.1.2.1.2.2.1.1.3.2.4.3q.1.1.2.2c.1.1.3.2.4.3q.1.1.2.2c.1.1.3.2.4.3q.1.1.2.1c.1.1.3.2.4.3q.1.1.2.1c.1.1.3.2.4.3q.1.1.2.1c.2.1.3.2.5.3q.1.1.2.1c.1.1.3.2.4.3.1,0,.1.1.2.1.2.1.3.2.5.4q.1.1.2.1c.2.1.3.2.5.4.1,0,.1.1.2.1.2.1.3.2.5.4.1,0,.1.1.2.1.2.1.3.2.5.4l.1.1c.2.1.3.3.5.4l.1.1c.2.1.3.3.5.4l.1.1c.2.1.3.3.5.4l.1.1c.2.1.4.3.5.4,0,0,.1,0,.1.1.2.1.4.3.5.4l.1.1c.2.1.4.3.5.4,0,0,.1,0,.1.1.2.1.4.3.6.4l.1.1c.2.1.4.3.6.4h0c.2.1.4.3.6.4h0c4.5,3.3,9,6.5,13.5,9.6h0c.2.1.4.3.6.4h.1c.2.1.4.3.6.4,0,0,.1,0,.1.1.2.1.4.2.5.4l.1.1c.2.1.4.2.5.4l.1.1c.2.1.3.2.5.4l.1.1c.2.1.3.2.5.3.1,0,.1.1.1.1.2.1.3.2.5.3.1,0,.1.1.2.1.2.1.3.2.5.3.1,0,.1.1.2.1.2.1.3.2.5.3.1,0,.2.1.2.2.1.1.3.2.4.3q.1.1.2.2c.1.1.3.2.4.3.1.1.2.1.3.2.1.1.3.2.4.3.1.1.2.1.3.2.1.1.3.2.4.3.1.1.2.1.3.2.1.1.2.2.4.2.1.1.2.1.3.2.1.1.2.1.3.2.1.1.2.2.4.2.1.1.2.1.3.2.1.1.3.2.4.3.1.1.2.1.3.2.1.1.3.2.4.3.1.1.2.1.2.2.2.1.3.2.5.3.1,0,.1.1.2.1.2.1.3.2.5.3.1,0,.1.1.2.1.2.1.4.2.6.4,0,0,.1,0,.1.1.2.1.4.3.6.4h.1c3.4,2.2,6.8,4.3,10.2,6.4l279.7-458.5-134.1,520.1c6,1.5,12.1,3,18.1,4.3h.1c.3.1.5.1.7.2h.1c.2,0,.4.1.6.1h.2c.2,0,.4.1.6.1.1,0,.2,0,.3.1.2,0,.4.1.6.1.1,0,.2,0,.3.1.1,0,.3.1.4.1s.3.1.4.1.3.1.4.1.3.1.4.1.2,0,.3.1c.2,0,.5.1.7.1h.2c12.7,2.7,25.6,4.9,38.7,6.6,17.2,2.3,34.8,3.8,52.5,4.4h6.7c2.1.1,4.3.1,6.4.1l6.5-538.7.2-.3,1.3,2.5-.5-2.2,351.1,408.3.1-.1c.1-.1.2-.2.4-.3l.3-.3.6-.6.3-.3c.1-.1.3-.2.4-.3l.3-.3c.1-.1.2-.2.4-.3l.3-.3c.1-.1.3-.2.4-.4.1-.1.2-.2.3-.2.2-.2.4-.4.7-.6.1-.1.2-.2.3-.2.1-.1.3-.2.4-.4l.3-.3c.1-.1.2-.2.4-.3l.3-.3c.1-.1.3-.2.4-.4l.3-.3.6-.6.3-.3c.1-.1.3-.2.4-.4l.3-.3c.1-.1.3-.2.4-.3l.3-.3c.1-.1.3-.2.4-.4.1-.1.2-.1.3-.2l.6-.6.2-.2.4-.4.3-.3c.1-.1.3-.2.4-.4l.3-.3.4-.4c.1-.1.2-.1.2-.2l.6-.6c.1-.1.2-.1.2-.2.1-.1.3-.3.5-.4.1-.1.2-.2.3-.2l.4-.4c.1-.1.2-.2.3-.2l.5-.5.1-.1c.2-.2.4-.4.7-.6l.2-.2c.2-.1.3-.3.5-.4l.2-.2.4-.4.2-.2c.2-.2.4-.3.5-.5l.1-.1c.2-.2.4-.4.7-.6l.2-.2.5-.5.2-.2.5-.5.2-.2.6-.6h0c.2-.2.5-.4.7-.7l.2-.2c.2-.2.4-.3.5-.5l.2-.2.5-.5.2-.2c.5-.4.9-.9,1.4-1.3l.1-.1.6-.6q.1-.1.2-.1c.2-.2.4-.4.6-.5l.1-.1,1.4-1.4.1-.1.6-.6.1-.1.6-.6.1-.1,1.4-1.4h0l.7-.7.1-.1c.2-.2.4-.4.6-.7h0c.5-.5.9-1,1.4-1.4h0c.2-.2.4-.5.7-.7l.1-.1.7-.7h0c.7-.7,1.4-1.4,2.1-2.2h0c18-18.8,34.7-38.9,49.9-60.1l-436.6-312.7,1.2.2-2.1-.8-.5-.4ZM754,44.1h0c-.3-.1-.5-.2-.7-.3h0c-.5-.2-1-.4-1.4-.6h-.1c-.2-.1-.5-.2-.7-.3h0c-.2-.1-.4-.2-.6-.3,0,0-.1,0-.1-.1-.2-.1-.4-.2-.6-.3q-.1,0-.2-.1c-.2-.1-.4-.2-.6-.3h-.1c-.2-.1-.4-.2-.6-.2q-.1,0-.2-.1c-.2-.1-.4-.2-.6-.3-.1,0-.1-.1-.2-.1-.2-.1-.4-.1-.5-.2q-.1,0-.2-.1c-.2-.1-.4-.2-.6-.2-.1,0-.2-.1-.2-.1-.2-.1-.4-.2-.6-.2-.1,0-.2-.1-.2-.1-.1-.1-.3-.1-.4-.2-.1,0-.2-.1-.3-.1-.2-.1-.4-.2-.5-.2s-.2-.1-.3-.1c-.1-.1-.2-.1-.4-.2-.2-.1-.3-.1-.5-.2-.1,0-.2-.1-.3-.1s-.2-.1-.3-.1-.2-.1-.3-.1c-.2-.1-.4-.2-.6-.2-.1,0-.1-.1-.2-.1-.2-.1-.4-.2-.7-.3-.1,0-.1-.1-.2-.1-.1-.1-.3-.1-.4-.2h-.1c-.3-.1-.5-.2-.8-.3h-.1c-.5-.2-.9-.4-1.4-.5h-.1c-.3-.1-.6-.2-.9-.3h-.1c-17.7-6.9-35.8-12.9-54.3-17.9l-140.6,517.8L801.8,67.6c-15.5-8.6-31.4-16.5-47.8-23.5Z"/>
</svg>