<?xml version="1.0" encoding="UTF-8"?>
<svg id="Layer_1" xmlns="http://www.w3.org/2000/svg" version="1.1" viewBox="0 0 496 94">
  <!-- Generator: Adobe Illustrator 29.1.0, SVG Export Plug-In . SVG Version: 2.1.0 Build 142)  -->
  <defs>
    <style>
      .st0 {
        opacity: .4;
      }

      .st1 {
        stroke: #231f20;
        stroke-width: 4px;
      }

      .st1, .st2 {
        fill: #fff;
        stroke-linejoin: round;
      }

      .st2 {
        stroke: #5e5758;
        stroke-width: 7px;
      }
    </style>
  </defs>
  <g class="st0">
    <g>
      <path class="st2" d="M78.3,86.8l-11.3-30.2h-2.9v30.2h-15.6V14h15.6v29.3h2.9l10.6-29.3h16.8l-13.6,35.4,14.6,37.4h-17Z"/>
      <path class="st2" d="M99.5,86.8V14h34.3v13h-18.9v18.4h16.3v12.5h-16.3v28.9h-15.5Z"/>
      <path class="st2" d="M161.4,13.1c12.6,0,19.2,9,20.3,22.2l-14.3,3.7c-.2-6.5-1.5-12.4-6.2-12.4s-7.5,7.8-7.5,23.7,2.5,23.9,7.6,23.9,5.9-6.1,6.2-12.6l14.3,3.7c-1.1,13.2-7.6,22.5-20.4,22.5s-23.9-12.9-23.9-37.4,8.7-37.2,23.9-37.2Z"/>
      <path class="st2" d="M241.4,86.9l-8.9-24h-.2l-9,24h-15.7l15.1-38.2-14.1-36h16.5l7.7,22h.2l7.7-22h15.9l-13.9,35.8,15.1,38.4h-16.3Z"/>
      <path class="st2" d="M285.6,40.4h.2l8.5-27.7h15.8l-16.8,48.1v26.1h-15.7v-26.1l-16.9-48.1h16.4l8.4,27.7Z"/>
      <path class="st2" d="M308.7,49.7c0-12.4,2.1-21.9,6.4-28.3,4.2-6.4,10.2-9.6,18-9.6s11.4,2.1,14.7,6.3c3.4,4.2,5.4,9.7,5.9,16.4l-14.6,3.8c0-3.3-.6-6.3-1.4-8.8-.9-2.6-2.5-3.8-4.9-3.8-5.1,0-7.7,8-7.7,24.1s2.6,24.4,7.8,24.4,4-1.3,4.8-4c.9-2.6,1.4-5.6,1.6-9l14.5,3.8c-.6,6.7-2.5,12.2-5.9,16.5-3.4,4.3-8.4,6.4-14.8,6.4s-13.8-3.2-18-9.7-6.4-15.9-6.4-28.4Z"/>
      <path class="st2" d="M403.5,49.7c0,12.5-2.1,22-6.4,28.4-4.3,6.4-10.3,9.7-18,9.7s-11.4-2.1-14.8-6.4c-3.4-4.2-5.4-9.7-5.9-16.5l14.6-3.8c.2,3.3.7,6.3,1.5,8.9.9,2.6,2.5,3.9,4.8,3.9,4.4,0,6.9-5.8,7.6-17.3h-15.4v-13.8h15.5c-.7-11.6-3.2-17.4-7.5-17.4s-4,1.3-4.9,3.9c-.9,2.6-1.4,5.5-1.4,8.8l-14.6-3.8c.6-6.7,2.5-12.2,5.9-16.4,3.4-4.2,8.3-6.3,14.8-6.3s13.7,3.2,18,9.6c4.3,6.4,6.4,15.9,6.4,28.3Z"/>
      <path class="st2" d="M427.6,37.8h-.4l-8.8,49.1h-16.5l17-74.2h16.7l16.8,74.2h-16l-8.8-49.1Z"/>
    </g>
  </g>
  <g>
    <path class="st1" d="M82,83.4l-11.3-30.2h-2.9v30.2h-15.6V10.6h15.6v29.3h2.9l10.6-29.3h16.8l-13.6,35.4,14.6,37.4h-17Z"/>
    <path class="st1" d="M103.3,83.4V10.6h34.3v13h-18.9v18.4h16.3v12.5h-16.3v28.9h-15.5Z"/>
    <path class="st1" d="M165.2,9.8c12.6,0,19.2,9,20.3,22.2l-14.3,3.7c-.2-6.5-1.5-12.4-6.2-12.4s-7.5,7.8-7.5,23.7,2.5,23.9,7.6,23.9,5.9-6.1,6.2-12.6l14.3,3.7c-1.1,13.2-7.6,22.5-20.4,22.5s-23.9-12.9-23.9-37.4,8.7-37.2,23.9-37.2Z"/>
    <path class="st1" d="M245.1,83.6l-8.9-24h-.2l-9,24h-15.7l15.1-38.2-14.1-36h16.5l7.7,22h.2l7.7-22h15.9l-13.9,35.8,15.1,38.4h-16.3Z"/>
    <path class="st1" d="M289.4,37h.2l8.5-27.7h15.8l-16.8,48.1v26.1h-15.7v-26.1l-16.9-48.1h16.4l8.4,27.7Z"/>
    <path class="st1" d="M312.5,46.4c0-12.4,2.1-21.9,6.4-28.3,4.2-6.4,10.2-9.6,18-9.6s11.4,2.1,14.7,6.3c3.4,4.2,5.4,9.7,5.9,16.4l-14.6,3.8c0-3.3-.6-6.3-1.4-8.8-.9-2.6-2.5-3.8-4.9-3.8-5.1,0-7.7,8-7.7,24.1s2.6,24.4,7.8,24.4,4-1.3,4.8-4c.9-2.6,1.4-5.6,1.6-9l14.5,3.8c-.6,6.7-2.5,12.2-5.9,16.5-3.4,4.3-8.4,6.4-14.8,6.4s-13.8-3.2-18-9.7-6.4-15.9-6.4-28.4Z"/>
    <path class="st1" d="M407.3,46.4c0,12.5-2.1,22-6.4,28.4-4.3,6.4-10.3,9.7-18,9.7s-11.4-2.1-14.8-6.4c-3.4-4.2-5.4-9.7-5.9-16.5l14.6-3.8c.2,3.3.7,6.3,1.5,8.9.9,2.6,2.5,3.9,4.8,3.9,4.4,0,6.9-5.8,7.6-17.3h-15.4v-13.8h15.5c-.7-11.6-3.2-17.4-7.5-17.4s-4,1.3-4.9,3.9c-.9,2.6-1.4,5.5-1.4,8.8l-14.6-3.8c.6-6.7,2.5-12.2,5.9-16.4,3.4-4.2,8.3-6.3,14.8-6.3s13.7,3.2,18,9.6c4.3,6.4,6.4,15.9,6.4,28.3Z"/>
    <path class="st1" d="M431.3,34.5h-.4l-8.8,49.1h-16.5l17-74.2h16.7l16.8,74.2h-16l-8.8-49.1Z"/>
  </g>
</svg>