<?xml version="1.0" encoding="UTF-8"?>
<svg xmlns="http://www.w3.org/2000/svg" version="1.1" viewBox="0 0 496 94">
  <defs>
    <style>
      .cls-1 {
        fill: #fff;
      }

      .cls-2 {
        fill: #ffbf1f;
      }

      .cls-3 {
        opacity: 0;
      }
    </style>
  </defs>
  <!-- Generator: Adobe Illustrator 28.7.2, SVG Export Plug-In . SVG Version: 1.2.0 Build 154)  -->
  <g>
    <g id="Layer_1">
      <g class="cls-3">
        <path class="cls-1" d="M173.5,89.3c-7.9,0-15.8-4.2-20-10.8-4.4-6.8-6.6-16.5-6.6-28.8s2.2-22.3,6.7-28.9c4.6-7.1,11.4-10.6,20-10.6s12.6,2,16.7,7.3c3.7,4.5,5.8,10.4,6.3,17.4.1,1.7-1,3.2-2.6,3.6l-13.8,3.6c-.3,0-.6,0-.9,0-.8,0-1.5-.3-2.1-.7-.9-.7-1.4-1.7-1.4-2.8,0-2.4-.4-4.9-1.2-7.3-.4-1.2-.7-1.2-1.3-1.2-1,0-3.8,3.6-3.8,19.3s2.9,19.6,3.9,19.6.7,0,.9,0c0-.4.2-.8.3-1.3h0c.7-2.2,1.2-4.7,1.3-7.7,0-1,.6-2,1.4-2.6.6-.4,1.3-.7,2.1-.7s.6,0,.9,0l13.7,3.6c1.7.4,2.8,2,2.6,3.7-.6,7.2-2.7,12.9-6.3,17.5-3.9,4.9-9.5,7.4-16.8,7.4v.2Z"/>
        <path d="M173.5,13.7c7.4,0,10.8,2,13.9,6,3.2,4,5.1,9.2,5.6,15.5l-13.8,3.6c0-3.1-.6-6-1.3-8.3-.9-2.5-2.4-3.6-4.6-3.6-4.8,0-7.3,7.6-7.3,22.8s2.5,23.1,7.4,23.1,3.8-1.2,4.5-3.8c.9-2.5,1.3-5.3,1.5-8.5l13.7,3.6c-.6,6.4-2.4,11.6-5.6,15.6-3.2,4.1-8,6.1-14,6.1s-13.1-3-17.1-9.2-6.1-15.1-6.1-26.9h0c0-11.8,2-20.9,6.1-26.9,4-6.1,9.7-9.1,17.1-9.1M173.5,6.7c-9.7,0-17.6,4.2-22.9,12.2-4.9,7.3-7.2,17.3-7.2,30.7h0c0,13.3,2.4,23.3,7.2,30.8,4.9,7.6,13.7,12.4,22.9,12.4s16.4-4.7,19.5-8.7c4-5.1,6.4-11.6,7.1-19.4.3-3.4-1.9-6.5-5.2-7.4l-13.7-3.6c-.6-.2-1.2-.2-1.8-.2-1.5,0-2.9.5-4.1,1.3-.9.6-1.6,1.5-2.1,2.4-.2-2.1-.3-4.5-.3-7.6s0-5.3.2-7.3c.4.8,1,1.4,1.7,2,1.2,1,2.7,1.5,4.3,1.5s1.2,0,1.8-.2l13.8-3.6c3.3-.9,5.5-3.9,5.2-7.3-.6-7.7-3-14.3-7.1-19.4-4.8-6.1-10.4-8.6-19.4-8.6h.1Z"/>
      </g>
      <g>
        <path class="cls-1" d="M175.9,84.5c-7.9,0-15.8-4.2-20-10.8-4.4-6.8-6.6-16.5-6.6-28.8s2.2-22.3,6.7-28.9c4.6-7.1,11.4-10.6,20-10.6s12.6,2,16.7,7.3c3.7,4.5,5.8,10.4,6.3,17.4.1,1.7-1,3.2-2.6,3.6l-13.8,3.6c-.3,0-.6,0-.9,0-.8,0-1.5-.3-2.1-.7-.9-.7-1.4-1.7-1.4-2.8,0-2.4-.4-4.9-1.2-7.3-.4-1.2-.7-1.2-1.3-1.2-1,0-3.8,3.6-3.8,19.3s2.9,19.6,3.9,19.6.7,0,.9,0c0-.4.2-.8.3-1.3h0c.7-2.2,1.2-4.7,1.3-7.7,0-1,.6-2,1.4-2.6.6-.4,1.3-.7,2.1-.7s.6,0,.9,0l13.7,3.6c1.7.4,2.8,2,2.6,3.7-.6,7.2-2.7,12.9-6.3,17.5-3.9,4.9-9.5,7.4-16.8,7.4v.2Z"/>
        <path class="cls-2" d="M175.9,8.9c7.4,0,10.8,2,13.9,6,3.2,4,5.1,9.2,5.6,15.5l-13.8,3.6c0-3.1-.6-6-1.3-8.3-.9-2.5-2.4-3.6-4.6-3.6-4.8,0-7.3,7.6-7.3,22.8s2.5,23.1,7.4,23.1,3.8-1.2,4.5-3.8c.9-2.5,1.3-5.3,1.5-8.5l13.7,3.6c-.6,6.4-2.4,11.6-5.6,15.6-3.2,4.1-8,6.1-14,6.1s-13.1-3-17.1-9.2-6.1-15.1-6.1-26.9h0c0-11.8,2-20.9,6.1-26.9,4-6.1,9.7-9.1,17.1-9.1M175.9,1.9c-9.7,0-17.6,4.2-22.9,12.2-4.9,7.3-7.2,17.3-7.2,30.7h0c0,13.3,2.4,23.3,7.2,30.8,4.9,7.6,13.7,12.4,22.9,12.4s16.4-4.7,19.5-8.7c4-5.1,6.4-11.6,7.1-19.4.3-3.4-1.9-6.5-5.2-7.4l-13.7-3.6c-.6-.2-1.2-.2-1.8-.2-1.5,0-2.9.5-4.1,1.3-.9.6-1.6,1.5-2.1,2.4-.2-2.1-.3-4.5-.3-7.6s0-5.3.2-7.3c.4.8,1,1.4,1.7,2,1.2,1,2.7,1.5,4.3,1.5s1.2,0,1.8-.2l13.8-3.6c3.3-.9,5.5-3.9,5.2-7.3-.6-7.7-3-14.3-7.1-19.4-4.8-6.1-10.4-8.6-19.4-8.6h.1Z"/>
      </g>
      <g class="cls-3">
        <path class="cls-1" d="M80.6,88.2c-1.5,0-2.9-.9-3.4-2.3l-6.7-17.9v16.6c0,1.9-1.6,3.5-3.5,3.5h-14.8c-1.9,0-3.5-1.6-3.5-3.5V15.7c0-1.9,1.6-3.5,3.5-3.5h14.8c1.9,0,3.5,1.6,3.5,3.5v15.4l6-16.6c.5-1.4,1.8-2.3,3.3-2.3h15.9c1.2,0,2.2.6,2.9,1.5s.8,2.2.4,3.2l-12.4,32.3,13.3,34.2c.4,1.1.3,2.3-.4,3.2-.7,1-1.7,1.5-2.9,1.5h-16.1,0Z"/>
        <path d="M95.7,15.7l-12.9,33.6,13.8,35.5h-16.2l-10.7-28.6h-2.7v28.6h-14.8V15.7h14.8v27.8h2.7l10-27.8h15.9M95.7,8.7h-15.9c-2.8,0-5.3,1.6-6.4,4.2-1.1-2.4-3.5-4.2-6.4-4.2h-14.8c-3.9,0-7,3.1-7,7v69c0,3.9,3.1,7,7,7h14.8c3.2,0,5.9-2.1,6.7-5l.2.5c1,2.7,3.6,4.5,6.6,4.5h16.2c2.3,0,4.5-1.1,5.8-3.1,1.3-1.9,1.6-4.3.7-6.5l-12.9-32.9,11.9-31c.8-2.2.5-4.6-.8-6.5s-3.5-3-5.8-3h.1Z"/>
      </g>
      <g class="cls-3">
        <path class="cls-1" d="M107.4,88.2c-1.9,0-3.5-1.6-3.5-3.5s0-.6,0-.8V15.7c0-1.9,1.6-3.5,3.5-3.5h32.5c1.9,0,3.5,1.6,3.5,3.5v12.3c0,1.9-1.6,3.5-3.5,3.5h-14.4v10.4h12c1.9,0,3.5,1.6,3.5,3.5v11.8c0,1.9-1.6,3.5-3.5,3.5h-12v23.9c0,1.9-1.6,3.5-3.5,3.5h-14.7,0Z"/>
        <path d="M140,15.7v12.3h-17.9v17.4h15.5v11.8h-15.5v27.4h-14.7V15.7h32.5M140,8.7h-32.5c-3.9,0-7,3.1-7,7v69.1c0,3.9,3.1,7,7,7h14.7c3.9,0,7-3.1,7-7v-20.4h8.5c3.9,0,7-3.1,7-7v-11.8c0-3.9-3.1-7-7-7h-8.5v-3.4h10.9c3.9,0,7-3.1,7-7v-12.3c0-3.9-3.1-7-7-7h0v-.2Z"/>
      </g>
      <g class="cls-3">
        <path class="cls-1" d="M247.4,88.4c-1.5,0-2.9-.9-3.4-2.3l-5.3-14.2-5.3,14.2c-.5,1.4-1.8,2.3-3.3,2.3h-14.9c-1.2,0-2.2-.6-2.9-1.5-.7-1-.8-2.2-.4-3.3l13.8-34.9-12.9-32.8c-.4-1.1-.3-2.3.4-3.2s1.7-1.5,2.9-1.5h15.6c1.5,0,2.8.9,3.3,2.3l4.1,11.7,4.1-11.7c.5-1.4,1.8-2.3,3.3-2.3h15.1c1.2,0,2.2.6,2.9,1.5.7,1,.8,2.2.4,3.2l-12.7,32.7,13.8,35.1c.4,1.1.3,2.3-.4,3.3-.7,1-1.7,1.5-2.9,1.5h-15.5.2Z"/>
        <path d="M261.7,14.6l-13.2,33.9,14.3,36.4h-15.5l-8.4-22.7h-.2l-8.5,22.7h-14.9l14.3-36.2-13.4-34.1h15.6l7.3,20.9h.2l7.3-20.9h15.1M261.7,7.6h-15.1c-3,0-5.6,1.9-6.6,4.7l-.8,2.2-.8-2.2c-1-2.8-3.6-4.7-6.6-4.7h-15.6c-2.3,0-4.5,1.1-5.8,3.1-1.3,1.9-1.6,4.3-.7,6.5l12.4,31.6-13.3,33.6c-.9,2.2-.6,4.6.7,6.5s3.5,3.1,5.8,3.1h14.9c2.9,0,5.5-1.8,6.6-4.5l2-5.4,2,5.4c1,2.7,3.6,4.6,6.6,4.6h15.5c2.3,0,4.5-1.1,5.8-3.1s1.6-4.3.7-6.5l-13.3-33.9,12.2-31.4c.8-2.2.6-4.6-.7-6.5-1.3-1.9-3.5-3-5.8-3h0Z"/>
      </g>
      <g class="cls-3">
        <path class="cls-1" d="M285.7,88.3c-1.9,0-3.5-1.6-3.5-3.5v-24.1l-15.8-45c-.4-1.1-.2-2.3.4-3.2.7-.9,1.7-1.5,2.9-1.5h15.5c1.5,0,2.9,1,3.3,2.5l4.8,15.7,4.8-15.8c.5-1.5,1.8-2.5,3.3-2.5h15c1.1,0,2.2.5,2.9,1.5.7.9.8,2.1.5,3.2l-15.7,45v24.1c0,1.9-1.6,3.5-3.5,3.5h-14.9,0Z"/>
        <path d="M316.6,14.5l-15.9,45.6v24.7h-14.9v-24.7l-16-45.6h15.5l8,26.3h.3l8.1-26.3h15M316.6,7.5h-15c-3.1,0-5.8,2-6.7,4.9l-1.5,4.8-1.4-4.8c-.9-3-3.6-5-6.7-5h-15.5c-2.3,0-4.4,1.1-5.7,3-1.3,1.9-1.6,4.2-.9,6.4l15.6,44.5v23.5c0,3.9,3.1,7,7,7h14.9c3.9,0,7-3.1,7-7v-23.6l15.5-44.5c.7-2.1.4-4.5-.9-6.4-1.3-1.8-3.4-2.9-5.7-2.9h0Z"/>
      </g>
      <g class="cls-3">
        <path class="cls-1" d="M342.4,89.3c-7.9,0-15.8-4.2-20-10.8-4.4-6.8-6.6-16.5-6.6-28.8s2.2-22.3,6.7-28.9c4.6-7.1,11.4-10.6,20-10.6s12.6,2,16.7,7.3c3.7,4.5,5.8,10.4,6.3,17.4.1,1.7-1,3.2-2.6,3.6l-13.8,3.6c-.3,0-.6,0-.9,0-.8,0-1.5-.3-2.1-.7-.9-.7-1.4-1.7-1.4-2.8,0-2.4-.4-4.9-1.2-7.3-.4-1.2-.7-1.2-1.3-1.2-1,0-3.8,3.6-3.8,19.3s2.9,19.6,3.9,19.6.7,0,.9,0c0-.4.2-.8.3-1.3h0c.7-2.2,1.2-4.7,1.3-7.7,0-1,.6-2,1.4-2.6.6-.4,1.3-.7,2.1-.7s.6,0,.9,0l13.7,3.6c1.7.4,2.8,2,2.6,3.7-.6,7.2-2.7,12.9-6.3,17.5-3.9,4.9-9.5,7.4-16.8,7.4v.2Z"/>
        <path d="M342.4,13.7c7.4,0,10.8,2,13.9,6,3.2,4,5.1,9.2,5.6,15.5l-13.8,3.6c0-3.1-.6-6-1.3-8.3-.9-2.5-2.4-3.6-4.6-3.6-4.8,0-7.3,7.6-7.3,22.8s2.5,23.1,7.4,23.1,3.8-1.2,4.5-3.8c.9-2.5,1.3-5.3,1.5-8.5l13.7,3.6c-.6,6.4-2.4,11.6-5.6,15.6-3.2,4.1-8,6.1-14,6.1s-13.1-3-17.1-9.2-6.1-15.1-6.1-26.9h0c0-11.8,2-20.9,6.1-26.9,4-6.1,9.7-9.1,17.1-9.1M342.4,6.7c-9.7,0-17.6,4.2-22.9,12.2-4.9,7.3-7.2,17.3-7.2,30.7h0c0,13.3,2.4,23.3,7.2,30.8,4.9,7.6,13.7,12.4,22.9,12.4s16.4-4.7,19.5-8.7c4-5.1,6.4-11.6,7.1-19.4.3-3.4-1.9-6.5-5.2-7.4l-13.7-3.6c-.6-.2-1.2-.2-1.8-.2-1.5,0-2.9.5-4.1,1.3-.9.6-1.6,1.5-2.1,2.4-.2-2.1-.3-4.5-.3-7.6s0-5.3.2-7.3c.4.8,1,1.4,1.7,2,1.2,1,2.7,1.5,4.3,1.5s1.2,0,1.8-.2l13.8-3.6c3.3-.9,5.5-3.9,5.2-7.3-.6-7.7-3-14.3-7.1-19.4-4.8-6.1-10.4-8.6-19.4-8.6h.1Z"/>
      </g>
      <g class="cls-3">
        <path class="cls-1" d="M389.3,89.2c-7.9,0-12.6-2.1-16.8-7.4-3.7-4.5-5.8-10.5-6.3-17.6-.1-1.7,1-3.2,2.6-3.6l10.3-2.7c-.3-.5-.5-1.1-.5-1.8v-13.1c0-.7.2-1.4.6-2l-10.2-2.7c-1.7-.4-2.8-2-2.6-3.7.6-7.1,2.8-13,6.4-17.4,3.9-4.8,9.5-7.3,16.7-7.3s15.6,4.1,20,10.6c4.4,6.6,6.7,16.3,6.7,28.8s0,.8-.2,1.1c-.1,12.3-2.3,21.4-6.7,27.9-4.8,7.1-11.5,10.7-20,10.7v.2ZM388.2,67.8c.5,1.3.8,1.3,1.2,1.3.7,0,2.5-1.8,3.4-9.4h-5.9v.6c.2,2.8.6,5.4,1.3,7.6h0ZM393,39.6c-.9-7.6-2.7-9.5-3.3-9.5h-.9v.2c-.1.3-.2.7-.3,1.1-.8,2.2-1.1,4.6-1.1,7.2s0,.6-.1,1h5.9-.2Z"/>
        <path d="M389.5,13.5c6.2,0,13,3,17.1,9.1s6.1,15.1,6.1,26.8l-.2.2c0,11.8-2,20.9-6.1,26.9-4.1,6.1-9.8,9.2-17.1,9.2s-10.8-2-14-6.1c-3.2-4-5.1-9.2-5.6-15.6l13.8-3.6c.2,3.1.7,6,1.4,8.4.9,2.5,2.4,3.7,4.5,3.7,4.2,0,6.5-5.5,7.2-16.4h-14.6v-13.1h14.7c-.7-11-3-16.5-7.1-16.5s-3.8,1.2-4.6,3.7c-.9,2.5-1.3,5.2-1.3,8.3l-13.8-3.6c.6-6.4,2.4-11.6,5.6-15.5,3.2-4,7.9-6,14-6M389.5,6.5c-8.3,0-14.9,2.9-19.5,8.6-4,5-6.4,11.5-7.1,19.3-.3,3.4,1.9,6.5,5.2,7.4l7,1.8v11.8l-7.2,1.9c-3.3.9-5.5,3.9-5.2,7.3.6,7.8,3,14.4,7.1,19.5,4.8,6.1,10.7,8.7,19.5,8.7s17.5-4.2,22.9-12.3c4.7-7,7.1-16.6,7.2-29.4.1-.5.2-1.1.2-1.7,0-13.4-2.4-23.5-7.3-30.7-5.1-7.5-13.8-12.2-22.9-12.2h0Z"/>
      </g>
      <g class="cls-3">
        <path class="cls-1" d="M447.8,88.4c-1.7,0-3.1-1.2-3.4-2.9l-5.1-28.4-5.1,28.4c-.3,1.7-1.8,2.9-3.4,2.9h-15.6c-1.1,0-2.1-.5-2.7-1.3-.7-.8-.9-1.9-.7-3l16.1-70.3c.4-1.6,1.8-2.7,3.4-2.7h15.8c1.6,0,3.1,1.1,3.4,2.7l15.9,70.3c.2,1,0,2.1-.7,3s-1.7,1.3-2.7,1.3h-15.2,0Z"/>
        <path d="M447,14.6l15.9,70.3h-15.2l-8.3-46.5h-.4l-8.3,46.5h-15.6l16.1-70.3h15.8M447,7.6h-15.8c-3.3,0-6.1,2.3-6.8,5.4l-16.1,70.3c-.5,2.1,0,4.3,1.3,5.9,1.3,1.7,3.3,2.6,5.5,2.6h15.6c3.4,0,6.3-2.4,6.9-5.8l1.6-9.2,1.6,9.2c.6,3.3,3.5,5.8,6.9,5.8h15.2c2.1,0,4.1-1,5.5-2.6,1.3-1.7,1.8-3.8,1.4-5.9l-15.9-70.3c-.7-3.2-3.6-5.5-6.8-5.5h-.1Z"/>
      </g>
      <g>
        <path class="cls-1" d="M83,83.4c-1.5,0-2.9-.9-3.4-2.3l-6.7-17.9v16.6c0,1.9-1.6,3.5-3.5,3.5h-14.8c-1.9,0-3.5-1.6-3.5-3.5V10.9c0-1.9,1.6-3.5,3.5-3.5h14.8c1.9,0,3.5,1.6,3.5,3.5v15.4l6-16.6c.5-1.4,1.8-2.3,3.3-2.3h15.9c1.2,0,2.2.6,2.9,1.5.7.9.8,2.2.4,3.2l-12.4,32.3,13.3,34.2c.4,1.1.3,2.3-.4,3.2-.7,1-1.7,1.5-2.9,1.5h-16.1,0Z"/>
        <path class="cls-2" d="M98.1,10.9l-12.9,33.6,13.8,35.5h-16.2l-10.7-28.6h-2.7v28.6h-14.8V10.9h14.8v27.8h2.7l10-27.8h15.9M98.1,3.9h-15.9c-2.8,0-5.3,1.6-6.4,4.2-1.1-2.4-3.5-4.2-6.4-4.2h-14.8c-3.9,0-7,3.1-7,7v69c0,3.9,3.1,7,7,7h14.8c3.2,0,5.9-2.1,6.7-5l.2.5c1,2.7,3.6,4.5,6.6,4.5h16.2c2.3,0,4.5-1.1,5.8-3.1,1.3-1.9,1.6-4.3.7-6.5l-12.9-32.9,11.9-31c.8-2.2.5-4.6-.8-6.5-1.3-1.9-3.5-3-5.8-3h.1Z"/>
      </g>
      <g>
        <path class="cls-1" d="M109.8,83.4c-1.9,0-3.5-1.6-3.5-3.5s0-.6,0-.8V10.9c0-1.9,1.6-3.5,3.5-3.5h32.5c1.9,0,3.5,1.6,3.5,3.5v12.3c0,1.9-1.6,3.5-3.5,3.5h-14.4v10.4h12c1.9,0,3.5,1.6,3.5,3.5v11.8c0,1.9-1.6,3.5-3.5,3.5h-12v23.9c0,1.9-1.6,3.5-3.5,3.5h-14.7.1Z"/>
        <path class="cls-2" d="M142.4,10.9v12.3h-17.9v17.4h15.5v11.8h-15.5v27.4h-14.7V10.9h32.5M142.4,3.9h-32.5c-3.9,0-7,3.1-7,7v69.1c0,3.9,3.1,7,7,7h14.7c3.9,0,7-3.1,7-7v-20.4h8.5c3.9,0,7-3.1,7-7v-11.8c0-3.9-3.1-7-7-7h-8.5v-3.4h10.9c3.9,0,7-3.1,7-7v-12.3c0-3.9-3.1-7-7-7h0v-.2Z"/>
      </g>
      <g>
        <path class="cls-1" d="M249.8,83.6c-1.5,0-2.9-.9-3.4-2.3l-5.3-14.2-5.3,14.2c-.5,1.4-1.8,2.3-3.3,2.3h-14.9c-1.2,0-2.2-.6-2.9-1.5-.7-1-.8-2.2-.4-3.3l13.8-34.9-12.9-32.8c-.4-1.1-.3-2.3.4-3.2s1.7-1.5,2.9-1.5h15.6c1.5,0,2.8.9,3.3,2.3l4.1,11.7,4.1-11.7c.5-1.4,1.8-2.3,3.3-2.3h15.1c1.2,0,2.2.6,2.9,1.5.7,1,.8,2.2.4,3.2l-12.7,32.7,13.8,35.1c.4,1.1.3,2.3-.4,3.3-.7,1-1.7,1.5-2.9,1.5h-15.5.2Z"/>
        <path class="cls-2" d="M264.1,9.8l-13.2,33.9,14.3,36.4h-15.5l-8.4-22.7h-.2l-8.5,22.7h-14.9l14.3-36.2-13.4-34.1h15.6l7.3,20.9h.2l7.3-20.9h15.1M264.1,2.8h-15.1c-3,0-5.6,1.9-6.6,4.7l-.8,2.2-.8-2.2c-1-2.8-3.6-4.7-6.6-4.7h-15.6c-2.3,0-4.5,1.1-5.8,3.1-1.3,1.9-1.6,4.3-.7,6.5l12.4,31.6-13.3,33.6c-.9,2.2-.6,4.6.7,6.5s3.5,3.1,5.8,3.1h14.9c2.9,0,5.5-1.8,6.6-4.5l2-5.4,2,5.4c1,2.7,3.6,4.6,6.6,4.6h15.5c2.3,0,4.5-1.1,5.8-3.1s1.6-4.3.7-6.5l-13.3-33.9,12.2-31.4c.8-2.2.6-4.6-.7-6.5-1.3-1.9-3.5-3-5.8-3h-.1Z"/>
      </g>
      <g>
        <path class="cls-1" d="M288.1,83.5c-1.9,0-3.5-1.6-3.5-3.5v-24.1l-15.8-45c-.4-1.1-.2-2.3.4-3.2.7-.9,1.7-1.5,2.9-1.5h15.5c1.5,0,2.9,1,3.3,2.5l4.8,15.7,4.8-15.8c.5-1.5,1.8-2.5,3.3-2.5h15c1.1,0,2.2.5,2.9,1.5.7.9.8,2.1.5,3.2l-15.7,45v24.1c0,1.9-1.6,3.5-3.5,3.5h-14.9,0Z"/>
        <path class="cls-2" d="M319,9.7l-15.9,45.6v24.7h-14.9v-24.7l-16-45.6h15.5l8,26.3h.3l8.1-26.3h15M319,2.7h-15c-3.1,0-5.8,2-6.7,4.9l-1.5,4.8-1.4-4.8c-.9-3-3.6-5-6.7-5h-15.5c-2.3,0-4.4,1.1-5.7,3-1.3,1.9-1.6,4.2-.9,6.4l15.6,44.5v23.5c0,3.9,3.1,7,7,7h14.9c3.9,0,7-3.1,7-7v-23.6l15.5-44.5c.7-2.1.4-4.5-.9-6.4-1.3-1.8-3.4-2.9-5.7-2.9h0Z"/>
      </g>
      <g>
        <path class="cls-1" d="M344.8,84.5c-7.9,0-15.8-4.2-20-10.8-4.4-6.8-6.6-16.5-6.6-28.8s2.2-22.3,6.7-28.9c4.6-7.1,11.4-10.6,20-10.6s12.6,2,16.7,7.3c3.7,4.5,5.8,10.4,6.3,17.4.1,1.7-1,3.2-2.6,3.6l-13.8,3.6c-.3,0-.6,0-.9,0-.8,0-1.5-.3-2.1-.7-.9-.7-1.4-1.7-1.4-2.8,0-2.4-.4-4.9-1.2-7.3-.4-1.2-.7-1.2-1.3-1.2-1,0-3.8,3.6-3.8,19.3s2.9,19.6,3.9,19.6.7,0,.9,0c0-.4.2-.8.3-1.3h0c.7-2.2,1.2-4.7,1.3-7.7,0-1,.6-2,1.4-2.6.6-.4,1.3-.7,2.1-.7s.6,0,.9,0l13.7,3.6c1.7.4,2.8,2,2.6,3.7-.6,7.2-2.7,12.9-6.3,17.5-3.9,4.9-9.5,7.4-16.8,7.4v.2Z"/>
        <path class="cls-2" d="M344.8,8.9c7.4,0,10.8,2,13.9,6,3.2,4,5.1,9.2,5.6,15.5l-13.8,3.6c0-3.1-.6-6-1.3-8.3-.9-2.5-2.4-3.6-4.6-3.6-4.8,0-7.3,7.6-7.3,22.8s2.5,23.1,7.4,23.1,3.8-1.2,4.5-3.8c.9-2.5,1.3-5.3,1.5-8.5l13.7,3.6c-.6,6.4-2.4,11.6-5.6,15.6-3.2,4.1-8,6.1-14,6.1s-13.1-3-17.1-9.2-6.1-15.1-6.1-26.9h0c0-11.8,2-20.9,6.1-26.9,4-6.1,9.7-9.1,17.1-9.1M344.8,1.9c-9.7,0-17.6,4.2-22.9,12.2-4.9,7.3-7.2,17.3-7.2,30.7h0c0,13.3,2.4,23.3,7.2,30.8,4.9,7.6,13.7,12.4,22.9,12.4s16.4-4.7,19.5-8.7c4-5.1,6.4-11.6,7.1-19.4.3-3.4-1.9-6.5-5.2-7.4l-13.7-3.6c-.6-.2-1.2-.2-1.8-.2-1.5,0-2.9.5-4.1,1.3-.9.6-1.6,1.5-2.1,2.4-.2-2.1-.3-4.5-.3-7.6s0-5.3.2-7.3c.4.8,1,1.4,1.7,2,1.2,1,2.7,1.5,4.3,1.5s1.2,0,1.8-.2l13.8-3.6c3.3-.9,5.5-3.9,5.2-7.3-.6-7.7-3-14.3-7.1-19.4-4.8-6.1-10.4-8.6-19.4-8.6h.1Z"/>
      </g>
      <g>
        <path class="cls-1" d="M391.7,84.4c-7.9,0-12.6-2.1-16.8-7.4-3.7-4.5-5.8-10.5-6.3-17.6-.1-1.7,1-3.2,2.6-3.6l10.3-2.7c-.3-.5-.5-1.1-.5-1.8v-13.1c0-.7.2-1.4.6-2l-10.2-2.7c-1.7-.4-2.8-2-2.6-3.7.6-7.1,2.8-13,6.4-17.4,3.9-4.8,9.5-7.3,16.7-7.3s15.6,4.1,20,10.6c4.4,6.6,6.7,16.3,6.7,28.8s0,.8-.2,1.1c-.1,12.3-2.3,21.4-6.7,27.9-4.8,7.1-11.5,10.7-20,10.7v.2ZM390.6,63c.5,1.3.8,1.3,1.2,1.3.7,0,2.5-1.8,3.4-9.4h-5.9v.6c.2,2.8.6,5.4,1.3,7.6h0ZM395.4,34.8c-.9-7.6-2.7-9.5-3.3-9.5h-.9v.2c-.1.3-.2.7-.3,1.1-.8,2.2-1.1,4.6-1.1,7.2s0,.6-.1,1h5.9-.2Z"/>
        <path class="cls-2" d="M391.9,8.7c6.2,0,13,3,17.1,9.1,4.1,6.1,6.1,15.1,6.1,26.8l-.2.2c0,11.8-2,20.9-6.1,26.9-4.1,6.1-9.8,9.2-17.1,9.2s-10.8-2-14-6.1c-3.2-4-5.1-9.2-5.6-15.6l13.8-3.6c.2,3.1.7,6,1.4,8.4.9,2.5,2.4,3.7,4.5,3.7,4.2,0,6.5-5.5,7.2-16.4h-14.6v-13.1h14.7c-.7-11-3-16.5-7.1-16.5s-3.8,1.2-4.6,3.7c-.9,2.5-1.3,5.2-1.3,8.3l-13.8-3.6c.6-6.4,2.4-11.6,5.6-15.5,3.2-4,7.9-6,14-6M391.9,1.7c-8.3,0-14.9,2.9-19.5,8.6-4,5-6.4,11.5-7.1,19.3-.3,3.4,1.9,6.5,5.2,7.4l7,1.8v11.8l-7.2,1.9c-3.3.9-5.5,3.9-5.2,7.3.6,7.8,3,14.4,7.1,19.5,4.8,6.1,10.7,8.7,19.5,8.7s17.5-4.2,22.9-12.3c4.7-7,7.1-16.6,7.2-29.4.1-.5.2-1.1.2-1.7,0-13.4-2.4-23.5-7.3-30.7-5.1-7.5-13.8-12.2-22.9-12.2h0Z"/>
      </g>
      <g>
        <path class="cls-1" d="M450.2,83.6c-1.7,0-3.1-1.2-3.4-2.9l-5.1-28.4-5.1,28.4c-.3,1.7-1.8,2.9-3.4,2.9h-15.6c-1.1,0-2.1-.5-2.7-1.3-.7-.8-.9-1.9-.7-3l16.1-70.3c.4-1.6,1.8-2.7,3.4-2.7h15.8c1.6,0,3.1,1.1,3.4,2.7l15.9,70.3c.2,1,0,2.1-.7,3s-1.7,1.3-2.7,1.3h-15.2,0Z"/>
        <path class="cls-2" d="M449.4,9.8l15.9,70.3h-15.2l-8.3-46.5h-.4l-8.3,46.5h-15.6l16.1-70.3h15.8M449.4,2.8h-15.8c-3.3,0-6.1,2.3-6.8,5.4l-16.1,70.3c-.5,2.1,0,4.3,1.3,5.9,1.3,1.7,3.3,2.6,5.5,2.6h15.6c3.4,0,6.3-2.4,6.9-5.8l1.6-9.2,1.6,9.2c.6,3.3,3.5,5.8,6.9,5.8h15.2c2.1,0,4.1-1,5.5-2.6,1.3-1.7,1.8-3.8,1.4-5.9l-15.9-70.3c-.7-3.2-3.6-5.5-6.8-5.5h-.1Z"/>
      </g>
    </g>
  </g>
</svg>